{
  "accessors": [
    {
      "bufferView": 2,
      "componentType": 5126,
      "count": 8271,
      "max": [
        1.1771814823150635,
        0.6917672157287598,
        2.480382204055786
      ],
      "min": [
        -1.1771814823150635,
        -0.7568890452384949,
        0.20833563804626465
      ],
      "type": "VEC3"
    },
    {
      "bufferView": 2,
      "byteOffset": 99252,
      "componentType": 5126,
      "count": 8271,
      "type": "VEC3"
    },
    {
      "bufferView": 1,
      "componentType": 5126,
      "count": 8271,
      "type": "VEC2"
    },
    {
      "bufferView": 0,
      "componentType": 5125,
      "count": 46128,
      "type": "SCALAR"
    },
    {
      "bufferView": 2,
      "byteOffset": 198504,
      "componentType": 5126,
      "count": 20640,
      "max": [
        0.24242544174194336,
        -0.3222876191139221,
        2.1739933490753174
      ],
      "min": [
        -0.24242544174194336,
        -0.5641061067581177,
        1.9930446147918701
      ],
      "type": "VEC3"
    },
    {
      "bufferView": 2,
      "byteOffset": 446184,
      "componentType": 5126,
      "count": 20640,
      "type": "VEC3"
    },
    {
      "bufferView": 1,
      "byteOffset": 66168,
      "componentType": 5126,
      "count": 20640,
      "type": "VEC2"
    },
    {
      "bufferView": 0,
      "byteOffset": 184512,
      "componentType": 5125,
      "count": 98304,
      "type": "SCALAR"
    },
    {
      "bufferView": 2,
      "byteOffset": 693864,
      "componentType": 5126,
      "count": 13225,
      "max": [
        0.646930456161499,
        0.6197908520698547,
        3.205490827560425
      ],
      "min": [
        -0.646930456161499,
        -0.652351438999176,
        2.033477306365967
      ],
      "type": "VEC3"
    },
    {
      "bufferView": 2,
      "byteOffset": 852564,
      "componentType": 5126,
      "count": 13225,
      "type": "VEC3"
    },
    {
      "bufferView": 1,
      "byteOffset": 231288,
      "componentType": 5126,
      "count": 13225,
      "type": "VEC2"
    },
    {
      "bufferView": 0,
      "byteOffset": 577728,
      "componentType": 5125,
      "count": 71616,
      "type": "SCALAR"
    },
    {
      "bufferView": 2,
      "byteOffset": 1011264,
      "componentType": 5126,
      "count": 21921,
      "max": [
        1.9457619190216064,
        0.24393315613269806,
        1.790932536125183
      ],
      "min": [
        -1.9457619190216064,
        -0.4588453769683838,
        0.0012710094451904297
      ],
      "type": "VEC3"
    },
    {
      "bufferView": 2,
      "byteOffset": 1274316,
      "componentType": 5126,
      "count": 21921,
      "type": "VEC3"
    },
    {
      "bufferView": 1,
      "byteOffset": 337088,
      "componentType": 5126,
      "count": 21921,
      "type": "VEC2"
    },
    {
      "bufferView": 0,
      "byteOffset": 864192,
      "componentType": 5125,
      "count": 91392,
      "type": "SCALAR"
    }
  ],
  "asset": {
    "generator": "fab-model-conversion",
    "version": "2.0"
  },
  "bufferViews": [
    {
      "buffer": 0,
      "byteLength": 1229760,
      "target": 34963
    },
    {
      "buffer": 0,
      "byteLength": 512456,
      "byteOffset": 1229760,
      "byteStride": 8,
      "target": 34962
    },
    {
      "buffer": 0,
      "byteLength": 1537368,
      "byteOffset": 1742216,
      "byteStride": 12,
      "target": 34962
    }
  ],
  "buffers": [
    {
      "byteLength": 3279584,
      "uri": "scene.bin"
    }
  ],
  "images": [
    {
      "uri": "textures/Cloak_baseColor.png"
    },
    {
      "uri": "textures/Skull_baseColor.png"
    }
  ],
  "materials": [
    {
      "doubleSided": true,
      "name": "Cloak",
      "pbrMetallicRoughness": {
        "baseColorTexture": {
          "index": 0
        },
        "metallicFactor": 0.0
      }
    },
    {
      "doubleSided": true,
      "name": "Teeth",
      "pbrMetallicRoughness": {
        "baseColorFactor": [
          0.367985,
          0.224928,
          0.142647,
          1.0
        ],
        "metallicFactor": 0.0
      }
    },
    {
      "doubleSided": true,
      "name": "Skull",
      "pbrMetallicRoughness": {
        "baseColorTexture": {
          "index": 1
        },
        "metallicFactor": 0.0
      }
    },
    {
      "doubleSided": true,
      "name": "Bone",
      "pbrMetallicRoughness": {
        "baseColorFactor": [
          0.211447,
          0.199327,
          0.179604,
          1.0
        ],
        "metallicFactor": 0.0
      }
    }
  ],
  "meshes": [
    {
      "name": "SkullCharacter_Cloak_0",
      "primitives": [
        {
          "attributes": {
            "NORMAL": 1,
            "POSITION": 0,
            "TEXCOORD_0": 2
          },
          "indices": 3,
          "material": 0,
          "mode": 4
        }
      ]
    },
    {
      "name": "SkullCharacter_Teeth_0",
      "primitives": [
        {
          "attributes": {
            "NORMAL": 5,
            "POSITION": 4,
            "TEXCOORD_0": 6
          },
          "indices": 7,
          "material": 1,
          "mode": 4
        }
      ]
    },
    {
      "name": "SkullCharacter_Skull_0",
      "primitives": [
        {
          "attributes": {
            "NORMAL": 9,
            "POSITION": 8,
            "TEXCOORD_0": 10
          },
          "indices": 11,
          "material": 2,
          "mode": 4
        }
      ]
    },
    {
      "name": "SkullCharacter_Bone_0",
      "primitives": [
        {
          "attributes": {
            "NORMAL": 13,
            "POSITION": 12,
            "TEXCOORD_0": 14
          },
          "indices": 15,
          "material": 3,
          "mode": 4
        }
      ]
    }
  ],
  "nodes": [
    {
      "children": [
        1
      ],
      "matrix": [
        1.0,
        0.0,
        0.0,
        0.0,
        0.0,
        2.220446049250313e-16,
        -1.0,
        0.0,
        0.0,
        1.0,
        2.220446049250313e-16,
        0.0,
        0.0,
        0.0,
        0.0,
        1.0
      ],
      "name": "Sketchfab_model"
    },
    {
      "children": [
        2
      ],
      "matrix": [
        0.009999999776482582,
        0.0,
        0.0,
        0.0,
        0.0,
        0.0,
        0.009999999776482582,
        0.0,
        0.0,
        -0.009999999776482582,
        0.0,
        0.0,
        0.0,
        0.0,
        0.0,
        1.0
      ],
      "name": "5e3f7deae873488baab5eb2a996e15ba.fbx"
    },
    {
      "children": [
        3
      ],
      "name": "RootNode"
    },
    {
      "children": [
        4,
        5,
        6,
        7
      ],
      "matrix": [
        100.0,
        0.0,
        0.0,
        0.0,
        0.0,
        -1.629206793918314e-05,
        -99.99999999999868,
        0.0,
        0.0,
        99.99999999999868,
        -1.629206793918314e-05,
        0.0,
        0.0,
        0.0,
        0.0,
        1.0
      ],
      "name": "SkullCharacter"
    },
    {
      "mesh": 0,
      "name": "SkullCharacter_Cloak_0"
    },
    {
      "mesh": 1,
      "name": "SkullCharacter_Teeth_0"
    },
    {
      "mesh": 2,
      "name": "SkullCharacter_Skull_0"
    },
    {
      "mesh": 3,
      "name": "SkullCharacter_Bone_0"
    }
  ],
  "samplers": [
    {
      "magFilter": 9729,
      "minFilter": 9987,
      "wrapS": 10497,
      "wrapT": 10497
    }
  ],
  "scene": 0,
  "scenes": [
    {
      "name": "Sketchfab_Scene",
      "nodes": [
        0
      ]
    }
  ],
  "textures": [
    {
      "sampler": 0,
      "source": 0
    },
    {
      "sampler": 0,
      "source": 1
    }
  ]
}
